<?xml version="1.0" encoding="iso-8859-1"?>
<svg xmlns="http://www.w3.org/2000/svg" xmlns:xlink="http://www.w3.org/1999/xlink" version="1.1" viewBox="0 0 368.554 368.554" enable-background="new 0 0 368.554 368.554" width="512px" height="512px">
  <path d="m361.054,176.777h-82.397l-40.622-70.359 41.325-71.357c2.076-3.584 0.853-8.173-2.731-10.249-3.585-2.075-8.173-0.853-10.249,2.731l-41.262,71.248h-81.681l-41.262-71.248c-2.075-3.584-6.665-4.805-10.249-2.731-3.584,2.076-4.807,6.665-2.731,10.249l41.325,71.357-40.622,70.359h-82.398c-4.142,0-7.5,3.358-7.5,7.5s3.358,7.5 7.5,7.5h82.397l40.622,70.359-41.325,71.357c-2.076,3.584-0.853,8.173 2.731,10.249 1.184,0.685 2.476,1.011 3.752,1.011 2.588,0 5.106-1.342 6.497-3.743l41.262-71.248h81.681l41.262,71.248c1.391,2.401 3.909,3.743 6.497,3.743 1.276,0 2.569-0.326 3.752-1.011 3.584-2.076 4.807-6.665 2.731-10.249l-41.325-71.357 40.622-70.359h82.397c4.142,0 7.5-3.358 7.5-7.5s-3.357-7.5-7.499-7.5zm-136.082,77.985h-81.39l-40.695-70.485 40.695-70.485h81.39l40.695,70.485-40.695,70.485z" fill="#FFFFFF"/>
</svg>
